<svg xmlns="http://www.w3.org/2000/svg" xmlns:xlink="http://www.w3.org/1999/xlink" width="160" height="111" viewBox="0 0 160 111">
  <defs>
    <clipPath id="clip-path">
      <rect id="사각형_1445" data-name="사각형 1445" width="160" height="111" fill="#51c568"/>
    </clipPath>
  </defs>
  <g id="리본" transform="translate(-342 -2534)">
    <g id="리본2" transform="translate(342 2534)">
      <rect id="사각형_1444" data-name="사각형 1444" width="20.566" height="15.692" transform="translate(18.056)" fill="#2b9c41"/>
      <g id="그룹_72" data-name="그룹 72">
        <g id="그룹_71" data-name="그룹 71" clip-path="url(#clip-path)">
          <path id="패스_857" data-name="패스 857" d="M12,0H11A11.139,11.139,0,0,0,0,11.272V16H22V11.272A11.139,11.139,0,0,0,11,0" transform="translate(7)" fill="#2b9c41"/>
          <path id="패스_858" data-name="패스 858" d="M230.1,11.028v95.221a4.728,4.728,0,0,1-6.817,4.256L165.688,81.993a10.36,10.36,0,0,0-9.2,0L98.9,110.5a4.728,4.728,0,0,1-6.818-4.256V0H219.114A11.006,11.006,0,0,1,230.1,11.028" transform="translate(-70.099)" fill="#51c568"/>
        </g>
      </g>
      <text id="MD_s_PICK_" data-name="MD&apos;s
PICK!" transform="translate(91 36)" fill="#fcffd6" font-size="26" font-family="Montserrat-Bold, Montserrat" font-weight="700" letter-spacing="-0.03em"><tspan x="-31.655" y="0">MD&apos;s</tspan><tspan fill="#fff"><tspan x="-34.996" y="30">PICK!</tspan></tspan></text>
    </g>
  </g>
</svg>
